<?xml version="1.0" encoding="UTF-8" standalone="no"?>
<!DOCTYPE svg PUBLIC "-//W3C//DTD SVG 1.1//EN" "http://www.w3.org/Graphics/SVG/1.1/DTD/svg11.dtd">
<svg width="100%" height="100%" viewBox="0 0 1000 1000" version="1.1" xmlns="http://www.w3.org/2000/svg" xmlns:xlink="http://www.w3.org/1999/xlink" xml:space="preserve" xmlns:serif="http://www.serif.com/" style="fill-rule:evenodd;clip-rule:evenodd;stroke-linejoin:round;stroke-miterlimit:2;">
    <g transform="matrix(1,0,0,1,-13.132292,0)">
        <g id="Artboard1" transform="matrix(1,0,0,1,13.132292,0)">
            <rect x="0" y="0" width="1000" height="1000" style="fill:none;"/>
            <g transform="matrix(2.03252,0,0,2.03252,-33.815036,98.456609)">
                <path d="M281.487,65.912C322.643,69.406 333.335,116.024 302.293,139.075C299.823,140.91 300.115,135.527 302.876,132.901C332.462,104.775 307.356,60.582 267.565,72.709C265.078,73.467 260.26,70.771 265.587,68.718C273.2,65.784 273.272,66.322 281.487,65.912Z" style="fill:rgb(7,7,7);"/>
                <path d="M243.628,51.783C243.536,51.839 233.499,56.11 227.694,66.606C217.579,84.895 228.96,97.974 224.178,101.003C219.083,104.232 209.554,59.728 244.557,46.653C275.239,35.192 298.483,66.145 290.471,63.68C280.609,60.645 273.991,40.617 243.628,51.783Z" style="fill:rgb(7,7,7);"/>
                <path d="M258.5,167.114C255.268,166.885 238.586,167.704 225.359,149.568C223.229,146.647 228.807,147.311 231.191,149.797C232.712,151.384 242.328,161.413 255.487,162.641C273.809,164.351 301.946,148.307 291.478,114.507C290.574,111.587 293.874,108.486 295.142,111.668C302.898,131.133 296.894,164.58 258.5,167.114Z" style="fill:rgb(8,8,8);"/>
                <path d="M222.668,138.108C244.823,145.455 245.812,137.153 251.517,138.43C259.245,140.159 248.988,143.453 248.534,143.599C208.431,156.479 175.243,101.876 214.513,72.524C217.694,70.147 216.979,75.771 214.328,78.313C211.634,80.895 191.871,99.843 206.758,124.334C211.019,131.345 221.212,137.263 222.668,138.108Z" style="fill:rgb(7,7,7);"/>
                <path d="M224.663,117.545C222.447,127.323 223.601,127.376 223.67,132.519C223.7,134.824 219.085,133.931 218.88,129.477C217.913,108.455 230.671,99.066 247.856,81.852C254.038,75.659 254.92,79.962 254.896,80.534C254.85,81.643 254.465,81.483 239.957,95.953C226.062,109.812 227.246,110.777 224.663,117.545Z" style="fill:rgb(7,7,7);"/>
                <path d="M238.483,65.927C257.227,67.585 261.082,73.691 283.229,95.781C283.575,96.126 287.657,100.197 284.64,101.733C278.814,104.697 263.961,68.67 234.497,70.444C231.711,70.612 230.24,72.272 230.293,69.503C230.301,69.104 231.577,66.864 232.468,66.44C233.682,65.862 233.641,66.114 238.483,65.927Z" style="fill:rgb(7,7,7);"/>
                <path d="M298.283,83.502C297.354,103.752 291.639,106.962 268.351,130.35C262.159,136.57 262.477,130.051 262.759,129.7C272.164,117.971 295.162,106.31 293.795,81.482C293.626,78.4 292.474,77.432 294.475,77.315C295.314,77.266 297.039,78.639 297.235,78.795C298.015,79.416 297.725,79.585 298.283,83.502Z" style="fill:rgb(6,6,6);"/>
                <path d="M266.608,138.231C278.124,141.952 278.295,140.874 285.497,140.544C286.625,140.493 289.312,145.667 279.505,145.292C261.027,144.587 255.166,136.921 233.25,114.75C232.953,114.448 229.917,111.377 232.506,109.509C236.195,106.848 245.955,127.141 266.608,138.231Z" style="fill:rgb(6,6,6);"/>
            </g>
            <g transform="matrix(3.196104,0,0,3.196104,-916.805197,-1314.784141)">
                <path d="M393.152,591.9C393.152,590.411 392.874,589.2 392.318,588.266C391.763,587.333 390.879,586.644 389.668,586.2C388.457,585.755 386.885,585.533 384.952,585.533L380.585,585.533L380.585,584.266L384.952,584.266C386.885,584.266 388.457,584.078 389.668,583.7C390.879,583.322 391.763,582.694 392.318,581.816C392.874,580.939 393.152,579.755 393.152,578.266L394.485,578.266L394.485,591.9L393.152,591.9ZM404.485,559.766L404.485,573.433L403.185,573.433C403.185,571.055 402.84,568.933 402.152,567.066C401.463,565.2 400.346,563.733 398.802,562.666C397.257,561.6 395.185,561.066 392.585,561.066L381.952,561.066L381.952,608.466L388.585,608.466L388.585,609.766L369.585,609.766L369.585,608.466L375.585,608.466L375.585,561.066L369.585,561.066L369.585,559.766L404.485,559.766Z" style="fill-rule:nonzero;"/>
                <path d="M412.785,594.133L412.785,592.833L434.385,592.833L434.385,594.133L412.785,594.133ZM425.385,558.8L442.585,608.466L447.785,608.466L447.785,609.766L428.452,609.766L428.452,608.466L435.285,608.466L422.185,567.9L408.052,608.466L415.118,608.466L415.118,609.766L400.452,609.766L400.452,608.466L406.552,608.466L424.018,558.8L425.385,558.8Z" style="fill-rule:nonzero;"/>
                <path d="M451.918,609.766L451.918,608.466L459.252,608.466L459.252,561.066L451.918,561.066L451.918,559.766L473.585,559.766L473.585,561.066L465.585,561.066L465.585,608.466L473.585,608.466L473.585,609.766L451.918,609.766Z" style="fill-rule:nonzero;"/>
                <path d="M477.718,609.766L477.718,608.466L483.718,608.466L483.718,561.066L477.718,561.066L477.718,559.766L513.285,559.766L513.285,573.433L511.985,573.433C511.985,571.055 511.646,568.933 510.968,567.066C510.29,565.2 509.179,563.733 507.635,562.666C506.09,561.6 504.018,561.066 501.418,561.066L490.085,561.066L490.085,608.466L500.718,608.466C503.763,608.466 506.152,607.911 507.885,606.8C509.618,605.689 510.846,604.111 511.568,602.066C512.29,600.022 512.652,597.589 512.652,594.766L513.952,594.766L513.952,609.766L477.718,609.766ZM500.652,591.2C500.652,589.711 500.368,588.478 499.802,587.5C499.235,586.522 498.452,585.789 497.452,585.3C496.452,584.811 495.318,584.566 494.052,584.566L488.485,584.566L488.485,583.266L494.052,583.266C495.318,583.266 496.452,583.044 497.452,582.6C498.452,582.155 499.235,581.466 499.802,580.533C500.368,579.6 500.652,578.389 500.652,576.9L501.952,576.9L501.952,591.2L500.652,591.2Z" style="fill-rule:nonzero;"/>
            </g>
            <g transform="matrix(1.038607,0,0,1.038607,-115.902603,92.871061)">
                <path d="M394.085,610.433C389.45,610.433 385.406,609.322 381.955,607.1C378.503,604.878 375.827,601.833 373.926,597.966C372.024,594.1 371.073,589.7 371.073,584.766C371.073,579.811 372.024,575.405 373.926,571.55C375.827,567.694 378.503,564.655 381.955,562.433C385.406,560.211 389.45,559.1 394.085,559.1C396.261,559.1 398.321,559.474 400.265,560.222C402.209,560.97 403.921,562.018 405.401,563.368L409.385,559.766L410.547,559.766L410.547,573.718L409.205,573.718C408.892,571.074 408.042,568.777 406.657,566.825C405.271,564.874 403.543,563.363 401.472,562.294C399.402,561.225 397.161,560.69 394.752,560.69C391.978,560.69 389.632,561.366 387.714,562.718C385.796,564.071 384.264,565.896 383.116,568.192C381.969,570.489 381.135,573.07 380.614,575.933C380.092,578.797 379.832,581.741 379.832,584.766C379.832,587.789 380.092,590.732 380.614,593.598C381.135,596.463 381.969,599.043 383.116,601.34C384.264,603.637 385.796,605.462 387.714,606.814C389.632,608.167 391.978,608.843 394.752,608.843C396.948,608.843 398.927,608.509 400.686,607.841C402.445,607.173 403.973,606.244 405.268,605.054C406.564,603.864 407.599,602.48 408.375,600.903C409.15,599.326 409.65,597.63 409.876,595.815L411.219,595.815L411.219,609.766L410.047,609.766L406.391,605.94C404.898,607.334 403.1,608.432 400.995,609.233C398.891,610.033 396.588,610.433 394.085,610.433Z" style="fill-rule:nonzero;"/>
                <path d="M440.647,610.433C437.223,610.433 434.166,609.776 431.478,608.462C428.79,607.147 426.512,605.315 424.643,602.966C422.774,600.617 421.356,597.89 420.39,594.787C419.423,591.684 418.94,588.344 418.94,584.766C418.94,581.189 419.456,577.849 420.487,574.746C421.519,571.642 422.986,568.916 424.89,566.567C426.794,564.218 429.079,562.386 431.745,561.072C434.411,559.757 437.378,559.1 440.647,559.1C443.916,559.1 446.878,559.757 449.534,561.072C452.191,562.386 454.476,564.218 456.389,566.567C458.303,568.916 459.77,571.642 460.792,574.746C461.814,577.849 462.325,581.189 462.325,584.766C462.325,588.344 461.842,591.684 460.876,594.787C459.909,597.89 458.496,600.617 456.637,602.966C454.777,605.315 452.503,607.147 449.815,608.462C447.127,609.776 444.071,610.433 440.647,610.433ZM440.647,609.228C443.393,609.228 445.612,608.555 447.303,607.208C448.994,605.861 450.297,604.033 451.212,601.723C452.127,599.412 452.748,596.794 453.076,593.867C453.403,590.94 453.567,587.907 453.567,584.766C453.567,581.626 453.37,578.593 452.976,575.666C452.582,572.739 451.911,570.121 450.962,567.811C450.013,565.5 448.7,563.672 447.021,562.325C445.343,560.978 443.218,560.304 440.647,560.304C438.079,560.304 435.954,560.978 434.275,562.325C432.595,563.672 431.276,565.5 430.317,567.811C429.359,570.121 428.683,572.739 428.289,575.666C427.895,578.593 427.698,581.626 427.698,584.766C427.698,587.907 427.867,590.94 428.204,593.867C428.54,596.794 429.162,599.412 430.067,601.723C430.973,604.033 432.281,605.861 433.991,607.208C435.701,608.555 437.92,609.228 440.647,609.228Z" style="fill-rule:nonzero;"/>
                <path d="M475.964,559.766L475.964,608.466L483.789,608.466L483.789,609.766L467.764,609.766L467.764,608.466L474.597,608.466L474.597,561.066L467.764,561.066L467.764,559.766L475.964,559.766ZM515.702,559.766L515.702,561.066L508.673,561.066L508.673,610.433L506.869,610.433L475.002,559.766L483.971,559.766L507.335,597.576L507.335,561.066L499.687,561.066L499.687,559.766L515.702,559.766Z" style="fill-rule:nonzero;"/>
                <path d="M538.058,610.733C535.304,610.733 532.912,610.303 530.884,609.442C528.856,608.581 527.146,607.401 525.756,605.901L522.012,610.433L520.864,610.433L520.864,596.178L522.169,596.178C522.596,598 523.217,599.707 524.032,601.298C524.847,602.888 525.879,604.288 527.128,605.496C528.377,606.704 529.857,607.652 531.568,608.342C533.279,609.031 535.255,609.376 537.495,609.376C539.783,609.376 541.761,608.981 543.43,608.192C545.1,607.403 546.386,606.269 547.29,604.791C548.193,603.312 548.645,601.524 548.645,599.426C548.645,597.511 548.166,595.9 547.207,594.591C546.249,593.282 544.975,592.148 543.384,591.189C541.794,590.229 540.052,589.34 538.158,588.521C536.264,587.702 534.371,586.836 532.477,585.923C530.584,585.01 528.842,583.937 527.251,582.702C525.661,581.468 524.386,579.964 523.428,578.192C522.469,576.421 521.99,574.261 521.99,571.713C521.99,569.156 522.63,566.935 523.912,565.051C525.194,563.166 526.907,561.703 529.05,560.662C531.194,559.62 533.543,559.1 536.098,559.1C538.239,559.1 540.211,559.44 542.015,560.122C543.819,560.803 545.396,561.828 546.745,563.198L550.452,559.1L551.552,559.1L551.552,573.173L550.276,573.173C549.707,570.383 548.792,568.05 547.529,566.176C546.266,564.301 544.717,562.895 542.88,561.958C541.044,561.021 538.981,560.552 536.69,560.552C533.661,560.552 531.36,561.278 529.785,562.73C528.212,564.182 527.425,566.1 527.425,568.486C527.425,570.205 527.899,571.661 528.848,572.855C529.797,574.05 531.052,575.1 532.614,576.006C534.176,576.913 535.894,577.776 537.768,578.595C539.643,579.414 541.517,580.3 543.39,581.252C545.263,582.204 546.98,583.333 548.542,584.637C550.104,585.941 551.359,587.523 552.308,589.381C553.257,591.239 553.732,593.497 553.732,596.153C553.732,599.104 553.078,601.672 551.771,603.858C550.465,606.042 548.636,607.734 546.285,608.934C543.934,610.133 541.192,610.733 538.058,610.733Z" style="fill-rule:nonzero;"/>
                <path d="M601.757,559.766L601.757,561.066L595.462,561.066L595.462,594.433C595.462,599.922 594.203,604.011 591.687,606.7C589.17,609.389 585.255,610.733 579.942,610.733C574.046,610.733 569.732,609.455 567,606.9C564.268,604.344 562.902,600.189 562.902,594.433L562.902,561.066L556.926,561.066L556.926,559.766L577.05,559.766L577.05,561.066L570.383,561.066L570.383,593.766C570.383,595.966 570.537,598.001 570.843,599.872C571.15,601.741 571.706,603.365 572.509,604.743C573.313,606.121 574.451,607.195 575.923,607.965C577.396,608.735 579.297,609.121 581.625,609.121C584.287,609.121 586.553,608.623 588.421,607.627C590.29,606.631 591.718,605.056 592.705,602.902C593.692,600.748 594.185,597.925 594.185,594.433L594.185,561.066L588.08,561.066L588.08,559.766L601.757,559.766Z" style="fill-rule:nonzero;"/>
                <path d="M605.764,609.766L605.764,608.466L611.769,608.466L611.769,561.066L605.764,561.066L605.764,559.766L625.222,559.766L625.222,561.066L619.251,561.066L619.251,608.466L628.501,608.466C631.073,608.466 633.17,608.15 634.791,607.516C636.413,606.883 637.675,605.972 638.578,604.783C639.481,603.594 640.118,602.155 640.489,600.466C640.859,598.778 641.079,596.878 641.147,594.766L642.476,594.766L642.476,609.766L605.764,609.766Z" style="fill-rule:nonzero;"/>
                <path d="M654.263,609.766L654.263,608.466L661.596,608.466L661.596,561.066L655.662,561.066C653.756,561.066 652.186,561.397 650.95,562.059C649.713,562.72 648.739,563.663 648.026,564.89C647.313,566.116 646.793,567.587 646.466,569.304C646.139,571.021 645.94,572.935 645.869,575.047L644.531,575.047L644.531,559.766L686.11,559.766L686.11,575.047L684.81,575.047C684.742,572.935 684.544,571.021 684.215,569.304C683.887,567.587 683.361,566.116 682.639,564.89C681.916,563.663 680.937,562.72 679.701,562.059C678.465,561.397 676.894,561.066 674.988,561.066L669.05,561.066L669.05,608.466L676.383,608.466L676.383,609.766L654.263,609.766Z" style="fill-rule:nonzero;"/>
                <path d="M689.897,609.766L689.897,608.466L697.235,608.466L697.235,561.066L689.897,561.066L689.897,559.766L712.689,559.766L712.689,561.066L704.689,561.066L704.689,608.466L712.689,608.466L712.689,609.766L689.897,609.766Z" style="fill-rule:nonzero;"/>
                <path d="M724.697,559.766L724.697,608.466L732.522,608.466L732.522,609.766L716.497,609.766L716.497,608.466L723.331,608.466L723.331,561.066L716.497,561.066L716.497,559.766L724.697,559.766ZM764.435,559.766L764.435,561.066L757.407,561.066L757.407,610.433L755.602,610.433L723.735,559.766L732.704,559.766L756.069,597.576L756.069,561.066L748.42,561.066L748.42,559.766L764.435,559.766Z" style="fill-rule:nonzero;"/>
                <path d="M795.752,590.047L814.714,590.047L814.714,591.49L810.871,591.49L810.871,598.953C810.218,600.022 809.377,601.215 808.35,602.531C807.323,603.848 806.064,605.107 804.572,606.309C803.08,607.511 801.306,608.499 799.251,609.273C797.195,610.046 794.811,610.433 792.1,610.433C787.385,610.433 783.373,609.336 780.065,607.142C776.758,604.947 774.232,601.919 772.489,598.058C770.745,594.195 769.873,589.765 769.873,584.766C769.873,581.009 770.441,577.565 771.577,574.435C772.712,571.305 774.317,568.592 776.392,566.297C778.466,564.001 780.921,562.227 783.754,560.976C786.588,559.725 789.694,559.1 793.071,559.1C795.19,559.1 797.228,559.468 799.183,560.203C801.138,560.939 802.868,561.958 804.373,563.26L808.559,559.766L809.721,559.766L809.721,573.718L808.388,573.718C808.218,571.802 807.717,570.053 806.886,568.469C806.055,566.885 804.971,565.511 803.632,564.347C802.294,563.183 800.788,562.284 799.112,561.648C797.435,561.012 795.668,560.695 793.808,560.695C791.034,560.695 788.676,561.371 786.733,562.723C784.791,564.076 783.228,565.9 782.045,568.195C780.862,570.49 779.997,573.07 779.451,575.933C778.905,578.797 778.632,581.741 778.632,584.766C778.632,587.789 778.83,590.746 779.225,593.638C779.621,596.53 780.315,599.142 781.307,601.476C782.3,603.809 783.671,605.666 785.42,607.045C787.17,608.424 789.396,609.114 792.1,609.114C793.98,609.114 795.563,608.808 796.85,608.196C798.136,607.584 799.177,606.84 799.975,605.963C800.773,605.087 801.394,604.225 801.84,603.377C802.286,602.53 802.6,601.882 802.78,601.433L802.78,591.49L795.752,591.49L795.752,590.047Z" style="fill-rule:nonzero;"/>
            </g>
            <g transform="matrix(0.548429,0,0,0.548429,15.523483,477.199698)">
                <path d="M374.698,609.766L374.698,561.902L394.869,561.902C399.975,561.902 404.476,562.905 408.374,564.911C412.271,566.917 415.302,569.72 417.468,573.321C419.633,576.923 420.716,581.094 420.716,585.834C420.716,590.575 419.633,594.746 417.468,598.347C415.302,601.949 412.271,604.752 408.374,606.758C404.476,608.764 399.975,609.766 394.869,609.766L374.698,609.766ZM381.536,603.818L394.459,603.818C398.425,603.818 401.855,603.065 404.75,601.561C407.644,600.057 409.889,597.949 411.485,595.236C413.08,592.524 413.878,589.39 413.878,585.834C413.878,582.233 413.08,579.088 411.485,576.398C409.889,573.709 407.644,571.612 404.75,570.108C401.855,568.603 398.425,567.851 394.459,567.851L381.536,567.851L381.536,603.818Z" style="fill-rule:nonzero;"/>
                <path d="M437.4,582.552L462.015,582.552L462.015,588.364L437.4,588.364L437.4,582.552ZM438.015,603.818L465.913,603.818L465.913,609.766L431.177,609.766L431.177,561.902L464.956,561.902L464.956,567.851L438.015,567.851L438.015,603.818Z" style="fill-rule:nonzero;"/>
                <path d="M490.939,610.313C487.292,610.313 483.805,609.755 480.477,608.638C477.15,607.521 474.528,606.074 472.614,604.296L475.144,598.963C476.967,600.558 479.292,601.88 482.118,602.929C484.945,603.977 487.885,604.501 490.939,604.501C493.72,604.501 495.976,604.182 497.708,603.544C499.44,602.906 500.717,602.028 501.537,600.912C502.358,599.795 502.768,598.53 502.768,597.117C502.768,595.476 502.233,594.154 501.161,593.151C500.09,592.148 498.7,591.339 496.99,590.723C495.281,590.108 493.401,589.572 491.349,589.117C489.298,588.661 487.235,588.125 485.161,587.51C483.087,586.894 481.195,586.108 479.486,585.151C477.776,584.193 476.397,582.906 475.349,581.287C474.301,579.669 473.776,577.584 473.776,575.031C473.776,572.569 474.426,570.301 475.725,568.227C477.024,566.153 479.03,564.489 481.742,563.236C484.455,561.982 487.908,561.355 492.101,561.355C494.882,561.355 497.64,561.72 500.375,562.449C503.11,563.179 505.48,564.227 507.486,565.595L505.23,571.065C503.178,569.697 501.013,568.706 498.734,568.091C496.455,567.475 494.244,567.167 492.101,567.167C489.412,567.167 487.201,567.509 485.469,568.193C483.737,568.877 482.472,569.789 481.674,570.928C480.876,572.068 480.477,573.344 480.477,574.757C480.477,576.444 481.013,577.789 482.084,578.792C483.155,579.794 484.546,580.592 486.255,581.185C487.965,581.777 489.845,582.313 491.896,582.792C493.948,583.27 496.01,583.806 498.084,584.398C500.158,584.991 502.05,585.766 503.76,586.723C505.469,587.681 506.848,588.957 507.896,590.552C508.945,592.148 509.469,594.199 509.469,596.706C509.469,599.122 508.808,601.367 507.486,603.442C506.164,605.516 504.124,607.179 501.366,608.433C498.609,609.687 495.133,610.313 490.939,610.313Z" style="fill-rule:nonzero;"/>
                <rect x="519.452" y="561.902" width="6.838" height="47.864" style="fill-rule:nonzero;"/>
                <path d="M562.256,610.313C558.564,610.313 555.168,609.709 552.068,608.501C548.968,607.293 546.279,605.584 544,603.373C541.72,601.162 539.943,598.575 538.666,595.612C537.39,592.649 536.752,589.39 536.752,585.834C536.752,582.279 537.39,579.019 538.666,576.056C539.943,573.093 541.732,570.507 544.034,568.296C546.336,566.085 549.037,564.375 552.136,563.167C555.236,561.959 558.655,561.355 562.393,561.355C566.177,561.355 569.641,561.971 572.786,563.202C575.932,564.432 578.598,566.279 580.786,568.74L576.547,572.98C574.587,571.065 572.456,569.663 570.154,568.774C567.852,567.885 565.356,567.441 562.667,567.441C559.931,567.441 557.39,567.897 555.042,568.809C552.695,569.72 550.666,570.997 548.957,572.638C547.247,574.279 545.926,576.227 544.991,578.484C544.057,580.74 543.589,583.19 543.589,585.834C543.589,588.433 544.057,590.86 544.991,593.117C545.926,595.373 547.247,597.333 548.957,598.997C550.666,600.661 552.683,601.949 555.008,602.86C557.333,603.772 559.863,604.228 562.598,604.228C565.151,604.228 567.601,603.829 569.949,603.031C572.296,602.234 574.473,600.9 576.479,599.031L580.376,604.228C578.006,606.234 575.237,607.749 572.068,608.775C568.9,609.801 565.63,610.313 562.256,610.313ZM573.812,603.339L573.812,585.561L580.376,585.561L580.376,604.228L573.812,603.339Z" style="fill-rule:nonzero;"/>
                <path d="M593.436,609.766L593.436,561.902L599.043,561.902L630.702,601.219L627.762,601.219L627.762,561.902L634.599,561.902L634.599,609.766L628.992,609.766L597.334,570.45L600.274,570.45L600.274,609.766L593.436,609.766Z" style="fill-rule:nonzero;"/>
                <path d="M670.907,597.185C669.813,597.185 668.788,596.923 667.83,596.399C666.873,595.874 666.11,595.134 665.54,594.176C664.97,593.219 664.685,592.125 664.685,590.894C664.685,589.709 664.97,588.649 665.54,587.715C666.11,586.78 666.873,586.04 667.83,585.493C668.788,584.946 669.813,584.672 670.907,584.672C672.047,584.672 673.084,584.946 674.019,585.493C674.953,586.04 675.694,586.78 676.241,587.715C676.788,588.649 677.061,589.709 677.061,590.894C677.061,592.125 676.788,593.219 676.241,594.176C675.694,595.134 674.953,595.874 674.019,596.399C673.084,596.923 672.047,597.185 670.907,597.185Z" style="fill-rule:nonzero;"/>
                <path d="M707.216,609.766L707.216,561.902L727.387,561.902C732.492,561.902 736.994,562.905 740.891,564.911C744.789,566.917 747.82,569.72 749.986,573.321C752.151,576.923 753.233,581.094 753.233,585.834C753.233,590.575 752.151,594.746 749.986,598.347C747.82,601.949 744.789,604.752 740.891,606.758C736.994,608.764 732.492,609.766 727.387,609.766L707.216,609.766ZM714.053,603.818L726.977,603.818C730.943,603.818 734.373,603.065 737.267,601.561C740.162,600.057 742.407,597.949 744.003,595.236C745.598,592.524 746.396,589.39 746.396,585.834C746.396,582.233 745.598,579.088 744.003,576.398C742.407,573.709 740.162,571.612 737.267,570.108C734.373,568.603 730.943,567.851 726.977,567.851L714.053,567.851L714.053,603.818Z" style="fill-rule:nonzero;"/>
                <path d="M769.917,582.552L794.533,582.552L794.533,588.364L769.917,588.364L769.917,582.552ZM770.533,603.818L798.431,603.818L798.431,609.766L763.695,609.766L763.695,561.902L797.473,561.902L797.473,567.851L770.533,567.851L770.533,603.818Z" style="fill-rule:nonzero;"/>
                <path d="M819.012,609.766L819.012,567.851L802.602,567.851L802.602,561.902L842.192,561.902L842.192,567.851L825.782,567.851L825.782,609.766L819.012,609.766Z" style="fill-rule:nonzero;"/>
                <path d="M840.004,609.766L861.68,561.902L868.449,561.902L890.193,609.766L883.013,609.766L863.663,565.732L866.398,565.732L847.047,609.766L840.004,609.766ZM849.235,597.8L851.081,592.33L878.022,592.33L880.005,597.8L849.235,597.8Z" style="fill-rule:nonzero;"/>
                <rect x="897.304" y="561.902" width="6.838" height="47.864" style="fill-rule:nonzero;"/>
                <path d="M918.501,609.766L918.501,561.902L925.339,561.902L925.339,603.818L951.254,603.818L951.254,609.766L918.501,609.766Z" style="fill-rule:nonzero;"/>
                <path d="M981.066,597.185C979.972,597.185 978.946,596.923 977.989,596.399C977.032,595.874 976.268,595.134 975.698,594.176C975.129,593.219 974.844,592.125 974.844,590.894C974.844,589.709 975.129,588.649 975.698,587.715C976.268,586.78 977.032,586.04 977.989,585.493C978.946,584.946 979.972,584.672 981.066,584.672C982.206,584.672 983.243,584.946 984.177,585.493C985.112,586.04 985.852,586.78 986.399,587.715C986.946,588.649 987.22,589.709 987.22,590.894C987.22,592.125 986.946,593.219 986.399,594.176C985.852,595.134 985.112,595.874 984.177,596.399C983.243,596.923 982.206,597.185 981.066,597.185Z" style="fill-rule:nonzero;"/>
                <path d="M1023.597,582.552L1048.212,582.552L1048.212,588.364L1023.597,588.364L1023.597,582.552ZM1024.212,603.818L1052.11,603.818L1052.11,609.766L1017.374,609.766L1017.374,561.902L1051.153,561.902L1051.153,567.851L1024.212,567.851L1024.212,603.818Z" style="fill-rule:nonzero;"/>
                <path d="M1063.187,609.766L1063.187,561.902L1070.025,561.902L1070.025,603.818L1095.94,603.818L1095.94,609.766L1063.187,609.766Z" style="fill-rule:nonzero;"/>
                <path d="M1110.025,582.552L1134.641,582.552L1134.641,588.364L1110.025,588.364L1110.025,582.552ZM1110.641,603.818L1138.538,603.818L1138.538,609.766L1103.803,609.766L1103.803,561.902L1137.581,561.902L1137.581,567.851L1110.641,567.851L1110.641,603.818Z" style="fill-rule:nonzero;"/>
                <path d="M1171.154,610.313C1167.462,610.313 1164.066,609.709 1160.966,608.501C1157.866,607.293 1155.177,605.584 1152.898,603.373C1150.618,601.162 1148.841,598.575 1147.564,595.612C1146.288,592.649 1145.65,589.39 1145.65,585.834C1145.65,582.279 1146.288,579.019 1147.564,576.056C1148.841,573.093 1150.63,570.507 1152.932,568.296C1155.234,566.085 1157.935,564.375 1161.035,563.167C1164.134,561.959 1167.553,561.355 1171.291,561.355C1175.075,561.355 1178.539,561.971 1181.684,563.202C1184.83,564.432 1187.496,566.279 1189.685,568.74L1185.445,572.98C1183.485,571.065 1181.354,569.663 1179.052,568.774C1176.75,567.885 1174.254,567.441 1171.565,567.441C1168.829,567.441 1166.288,567.897 1163.941,568.809C1161.593,569.72 1159.564,570.997 1157.855,572.638C1156.146,574.279 1154.824,576.227 1153.889,578.484C1152.955,580.74 1152.487,583.19 1152.487,585.834C1152.487,588.433 1152.955,590.86 1153.889,593.117C1154.824,595.373 1156.146,597.333 1157.855,598.997C1159.564,600.661 1161.582,601.949 1163.906,602.86C1166.231,603.772 1168.761,604.228 1171.496,604.228C1174.049,604.228 1176.499,603.829 1178.847,603.031C1181.194,602.234 1183.371,600.9 1185.377,599.031L1189.274,604.228C1186.904,606.234 1184.135,607.749 1180.966,608.775C1177.798,609.801 1174.528,610.313 1171.154,610.313ZM1182.71,603.339L1182.71,585.561L1189.274,585.561L1189.274,604.228L1182.71,603.339Z" style="fill-rule:nonzero;"/>
                <path d="M1195.086,609.766L1216.762,561.902L1223.531,561.902L1245.275,609.766L1238.095,609.766L1218.745,565.732L1221.48,565.732L1202.129,609.766L1195.086,609.766ZM1204.317,597.8L1206.163,592.33L1233.104,592.33L1235.087,597.8L1204.317,597.8Z" style="fill-rule:nonzero;"/>
                <path d="M1252.386,609.766L1252.386,561.902L1257.993,561.902L1289.652,601.219L1286.712,601.219L1286.712,561.902L1293.549,561.902L1293.549,609.766L1287.942,609.766L1256.284,570.45L1259.224,570.45L1259.224,609.766L1252.386,609.766Z" style="fill-rule:nonzero;"/>
                <path d="M1329.311,610.313C1325.664,610.313 1322.302,609.709 1319.225,608.501C1316.148,607.293 1313.481,605.584 1311.225,603.373C1308.968,601.162 1307.202,598.575 1305.926,595.612C1304.649,592.649 1304.011,589.39 1304.011,585.834C1304.011,582.279 1304.649,579.019 1305.926,576.056C1307.202,573.093 1308.98,570.507 1311.259,568.296C1313.538,566.085 1316.216,564.375 1319.293,563.167C1322.37,561.959 1325.732,561.355 1329.379,561.355C1333.071,561.355 1336.479,561.982 1339.601,563.236C1342.724,564.489 1345.379,566.347 1347.567,568.809L1343.123,573.116C1341.299,571.202 1339.248,569.777 1336.969,568.843C1334.69,567.908 1332.251,567.441 1329.652,567.441C1326.963,567.441 1324.467,567.897 1322.165,568.809C1319.863,569.72 1317.869,570.997 1316.182,572.638C1314.496,574.279 1313.185,576.227 1312.25,578.484C1311.316,580.74 1310.849,583.19 1310.849,585.834C1310.849,588.478 1311.316,590.929 1312.25,593.185C1313.185,595.441 1314.496,597.39 1316.182,599.031C1317.869,600.672 1319.863,601.949 1322.165,602.86C1324.467,603.772 1326.963,604.228 1329.652,604.228C1332.251,604.228 1334.69,603.761 1336.969,602.826C1339.248,601.892 1341.299,600.444 1343.123,598.484L1347.567,602.792C1345.379,605.254 1342.724,607.122 1339.601,608.399C1336.479,609.675 1333.048,610.313 1329.311,610.313Z" style="fill-rule:nonzero;"/>
                <path d="M1363.567,582.552L1388.183,582.552L1388.183,588.364L1363.567,588.364L1363.567,582.552ZM1364.183,603.818L1392.081,603.818L1392.081,609.766L1357.345,609.766L1357.345,561.902L1391.123,561.902L1391.123,567.851L1364.183,567.851L1364.183,603.818Z" style="fill-rule:nonzero;"/>
            </g>
        </g>
    </g>
</svg>
