<?xml version="1.0" encoding="UTF-8" standalone="no"?>
<!DOCTYPE svg PUBLIC "-//W3C//DTD SVG 1.1//EN" "http://www.w3.org/Graphics/SVG/1.1/DTD/svg11.dtd">
<svg width="100%" height="100%" viewBox="0 0 1000 1000" version="1.1" xmlns="http://www.w3.org/2000/svg" xmlns:xlink="http://www.w3.org/1999/xlink" xml:space="preserve" xmlns:serif="http://www.serif.com/" style="fill-rule:evenodd;clip-rule:evenodd;stroke-linecap:round;stroke-linejoin:round;stroke-miterlimit:1.5;">
    <g transform="matrix(1,0,0,1,-1063.132292,0)">
        <g id="Artboard2" transform="matrix(1,0,0,1,13.132292,0)">
            <rect x="1050" y="0" width="1000" height="1000" style="fill:none;"/>
            <g transform="matrix(1.924205,0,0,1.924205,395.804786,-624.280457)">
                <path d="M397.492,588.875C397.492,587.134 397.167,585.718 396.517,584.626C395.868,583.535 394.835,582.729 393.419,582.21C392.002,581.69 390.164,581.43 387.903,581.43L382.797,581.43L382.797,579.949L387.903,579.949C390.164,579.949 392.002,579.728 393.419,579.286C394.835,578.845 395.868,578.11 396.517,577.084C397.167,576.058 397.492,574.674 397.492,572.933L399.051,572.933L399.051,588.875L397.492,588.875ZM410.744,551.301L410.744,567.281L409.224,567.281C409.224,564.501 408.821,562.019 408.016,559.837C407.21,557.654 405.904,555.939 404.098,554.692C402.292,553.444 399.869,552.821 396.829,552.821L384.395,552.821L384.395,608.246L392.152,608.246L392.152,609.766L369.935,609.766L369.935,608.246L376.951,608.246L376.951,552.821L369.935,552.821L369.935,551.301L410.744,551.301Z" style="fill-rule:nonzero;"/>
                <path d="M420.449,591.486L420.449,589.966L445.706,589.966L445.706,591.486L420.449,591.486ZM435.183,550.17L455.295,608.246L461.375,608.246L461.375,609.766L438.768,609.766L438.768,608.246L446.759,608.246L431.441,560.811L414.914,608.246L423.178,608.246L423.178,609.766L406.028,609.766L406.028,608.246L413.16,608.246L433.585,550.17L435.183,550.17Z" style="fill-rule:nonzero;"/>
                <path d="M466.208,609.766L466.208,608.246L474.783,608.246L474.783,552.821L466.208,552.821L466.208,551.301L491.544,551.301L491.544,552.821L482.189,552.821L482.189,608.246L491.544,608.246L491.544,609.766L466.208,609.766Z" style="fill-rule:nonzero;"/>
                <path d="M496.377,609.766L496.377,608.246L503.393,608.246L503.393,552.821L496.377,552.821L496.377,551.301L537.965,551.301L537.965,567.281L536.445,567.281C536.445,564.501 536.049,562.019 535.256,559.837C534.464,557.654 533.165,555.939 531.359,554.692C529.553,553.444 527.13,552.821 524.089,552.821L510.837,552.821L510.837,608.246L523.271,608.246C526.831,608.246 529.624,607.597 531.651,606.297C533.678,604.998 535.113,603.153 535.958,600.763C536.802,598.372 537.225,595.527 537.225,592.227L538.745,592.227L538.745,609.766L496.377,609.766ZM523.193,588.056C523.193,586.315 522.862,584.873 522.199,583.73C521.536,582.586 520.62,581.729 519.451,581.157C518.282,580.586 516.957,580.3 515.475,580.3L508.966,580.3L508.966,578.78L515.475,578.78C516.957,578.78 518.282,578.52 519.451,578C520.62,577.48 521.536,576.675 522.199,575.583C522.862,574.492 523.193,573.076 523.193,571.335L524.713,571.335L524.713,588.056L523.193,588.056Z" style="fill-rule:nonzero;"/>
            </g>
            <g transform="matrix(1.038607,0,0,1.038607,1107.563047,-133.307376)">
                <path d="M396.295,610.489C391.274,610.489 386.894,609.285 383.156,606.878C379.417,604.471 376.518,601.173 374.459,596.985C372.399,592.797 371.369,588.031 371.369,582.687C371.369,577.319 372.399,572.547 374.459,568.371C376.518,564.195 379.417,560.903 383.156,558.496C386.894,556.089 391.274,554.885 396.295,554.885C398.651,554.885 400.883,555.29 402.989,556.1C405.094,556.91 406.949,558.047 408.552,559.509L412.868,555.607L414.127,555.607L414.127,570.719L412.672,570.719C412.333,567.856 411.413,565.367 409.912,563.253C408.412,561.139 406.54,559.503 404.297,558.345C402.054,557.187 399.627,556.608 397.017,556.608C394.013,556.608 391.472,557.34 389.394,558.805C387.317,560.27 385.657,562.246 384.414,564.734C383.171,567.222 382.267,570.017 381.703,573.119C381.138,576.22 380.856,579.41 380.856,582.687C380.856,585.96 381.138,589.149 381.703,592.253C382.267,595.356 383.171,598.152 384.414,600.639C385.657,603.127 387.317,605.104 389.394,606.569C391.472,608.034 394.013,608.766 397.017,608.766C399.397,608.766 401.539,608.405 403.445,607.681C405.351,606.958 407.005,605.951 408.408,604.662C409.812,603.373 410.933,601.874 411.773,600.166C412.613,598.458 413.155,596.621 413.399,594.654L414.854,594.654L414.854,609.766L413.585,609.766L409.625,605.622C408.008,607.132 406.06,608.321 403.78,609.188C401.501,610.055 399.006,610.489 396.295,610.489Z" style="fill-rule:nonzero;"/>
                <path d="M446.73,610.489C443.021,610.489 439.71,609.777 436.798,608.353C433.887,606.929 431.419,604.945 429.394,602.4C427.37,599.855 425.834,596.902 424.788,593.541C423.741,590.18 423.218,586.562 423.218,582.687C423.218,578.812 423.776,575.194 424.893,571.832C426.01,568.471 427.6,565.518 429.662,562.973C431.725,560.429 434.2,558.445 437.087,557.021C439.975,555.597 443.189,554.885 446.73,554.885C450.271,554.885 453.479,555.597 456.357,557.021C459.234,558.445 461.709,560.429 463.782,562.973C465.854,565.518 467.444,568.471 468.551,571.832C469.658,575.194 470.211,578.812 470.211,582.687C470.211,586.562 469.688,590.18 468.641,593.541C467.595,596.902 466.064,599.855 464.05,602.4C462.036,604.945 459.573,606.929 456.661,608.353C453.749,609.777 450.439,610.489 446.73,610.489ZM446.73,609.184C449.705,609.184 452.108,608.454 453.939,606.995C455.771,605.536 457.182,603.556 458.174,601.054C459.165,598.551 459.838,595.715 460.192,592.544C460.547,589.374 460.724,586.088 460.724,582.687C460.724,579.285 460.511,576 460.084,572.829C459.658,569.659 458.931,566.823 457.903,564.321C456.876,561.818 455.453,559.837 453.635,558.378C451.817,556.92 449.515,556.19 446.73,556.19C443.948,556.19 441.647,556.92 439.827,558.378C438.008,559.837 436.579,561.818 435.541,564.321C434.503,566.823 433.771,569.659 433.344,572.829C432.918,576 432.704,579.285 432.704,582.687C432.704,586.088 432.887,589.374 433.252,592.544C433.616,595.715 434.289,598.551 435.27,601.054C436.251,603.556 437.668,605.536 439.521,606.995C441.373,608.454 443.776,609.184 446.73,609.184Z" style="fill-rule:nonzero;"/>
                <path d="M484.985,555.607L484.985,608.358L493.461,608.358L493.461,609.766L476.103,609.766L476.103,608.358L483.505,608.358L483.505,557.015L476.103,557.015L476.103,555.607L484.985,555.607ZM528.028,555.607L528.028,557.015L520.415,557.015L520.415,610.489L518.46,610.489L483.943,555.607L493.658,555.607L518.966,596.562L518.966,557.015L510.681,557.015L510.681,555.607L528.028,555.607Z" style="fill-rule:nonzero;"/>
                <path d="M552.244,610.813C549.26,610.813 546.67,610.347 544.473,609.415C542.276,608.482 540.425,607.204 538.918,605.58L534.863,610.489L533.62,610.489L533.62,595.048L535.033,595.048C535.496,597.021 536.168,598.87 537.051,600.593C537.934,602.316 539.052,603.832 540.405,605.14C541.758,606.449 543.361,607.476 545.214,608.223C547.067,608.97 549.207,609.343 551.634,609.343C554.112,609.343 556.255,608.916 558.063,608.062C559.871,607.207 561.265,605.978 562.243,604.377C563.222,602.775 563.712,600.838 563.712,598.566C563.712,596.492 563.193,594.746 562.154,593.329C561.116,591.911 559.736,590.683 558.013,589.643C556.29,588.604 554.403,587.641 552.352,586.754C550.301,585.866 548.25,584.928 546.199,583.94C544.148,582.951 542.261,581.788 540.538,580.451C538.815,579.114 537.435,577.485 536.397,575.566C535.358,573.647 534.839,571.307 534.839,568.548C534.839,565.778 535.533,563.373 536.921,561.331C538.31,559.289 540.165,557.705 542.487,556.577C544.809,555.449 547.354,554.885 550.121,554.885C552.44,554.885 554.576,555.254 556.53,555.992C558.484,556.73 560.192,557.841 561.654,559.324L565.669,554.885L566.86,554.885L566.86,570.129L565.478,570.129C564.862,567.107 563.87,564.58 562.502,562.55C561.135,560.519 559.456,558.996 557.467,557.981C555.478,556.966 553.243,556.459 550.762,556.459C547.481,556.459 544.988,557.245 543.283,558.817C541.578,560.39 540.726,562.468 540.726,565.052C540.726,566.914 541.24,568.491 542.268,569.785C543.296,571.079 544.655,572.216 546.347,573.198C548.039,574.18 549.9,575.115 551.93,576.002C553.961,576.889 555.99,577.849 558.019,578.88C560.048,579.912 561.908,581.134 563.6,582.547C565.291,583.96 566.651,585.672 567.679,587.685C568.707,589.698 569.221,592.143 569.221,595.02C569.221,598.217 568.514,600.999 567.098,603.366C565.683,605.732 563.702,607.565 561.155,608.865C558.609,610.164 555.638,610.813 552.244,610.813Z" style="fill-rule:nonzero;"/>
                <path d="M621.241,555.607L621.241,557.015L614.422,557.015L614.422,593.158C614.422,599.103 613.059,603.532 610.333,606.445C607.607,609.357 603.367,610.813 597.612,610.813C591.226,610.813 586.553,609.429 583.593,606.661C580.634,603.893 579.154,599.392 579.154,593.158L579.154,557.015L572.681,557.015L572.681,555.607L594.479,555.607L594.479,557.015L587.258,557.015L587.258,592.435C587.258,594.818 587.424,597.023 587.756,599.049C588.089,601.074 588.69,602.833 589.561,604.326C590.432,605.818 591.664,606.981 593.259,607.816C594.854,608.65 596.913,609.067 599.435,609.067C602.318,609.067 604.772,608.528 606.797,607.449C608.821,606.371 610.367,604.665 611.436,602.331C612.505,599.998 613.04,596.94 613.04,593.158L613.04,557.015L606.427,557.015L606.427,555.607L621.241,555.607Z" style="fill-rule:nonzero;"/>
                <path d="M625.582,609.766L625.582,608.358L632.086,608.358L632.086,557.015L625.582,557.015L625.582,555.607L646.659,555.607L646.659,557.015L640.191,557.015L640.191,608.358L650.21,608.358C652.996,608.358 655.267,608.015 657.024,607.329C658.78,606.643 660.147,605.656 661.125,604.369C662.103,603.081 662.793,601.522 663.195,599.693C663.597,597.863 663.834,595.805 663.908,593.519L665.348,593.519L665.348,609.766L625.582,609.766Z" style="fill-rule:nonzero;"/>
                <path d="M678.115,609.766L678.115,608.358L686.058,608.358L686.058,557.015L679.63,557.015C677.566,557.015 675.865,557.374 674.526,558.09C673.187,558.806 672.131,559.829 671.359,561.157C670.587,562.485 670.024,564.079 669.67,565.939C669.316,567.799 669.1,569.872 669.023,572.159L667.573,572.159L667.573,555.607L712.612,555.607L712.612,572.159L711.203,572.159C711.129,569.872 710.914,567.799 710.559,565.939C710.203,564.079 709.634,562.485 708.851,561.157C708.068,559.829 707.007,558.806 705.669,558.09C704.33,557.374 702.628,557.015 700.564,557.015L694.132,557.015L694.132,608.358L702.075,608.358L702.075,609.766L678.115,609.766Z" style="fill-rule:nonzero;"/>
                <path d="M716.714,609.766L716.714,608.358L724.662,608.358L724.662,557.015L716.714,557.015L716.714,555.607L741.401,555.607L741.401,557.015L732.736,557.015L732.736,608.358L741.401,608.358L741.401,609.766L716.714,609.766Z" style="fill-rule:nonzero;"/>
                <path d="M754.408,555.607L754.408,608.358L762.884,608.358L762.884,609.766L745.526,609.766L745.526,608.358L752.928,608.358L752.928,557.015L745.526,557.015L745.526,555.607L754.408,555.607ZM797.452,555.607L797.452,557.015L789.839,557.015L789.839,610.489L787.884,610.489L753.366,555.607L763.081,555.607L788.389,596.562L788.389,557.015L780.105,557.015L780.105,555.607L797.452,555.607Z" style="fill-rule:nonzero;"/>
                <path d="M831.373,588.407L851.912,588.407L851.912,589.97L847.75,589.97L847.75,598.053C847.043,599.212 846.132,600.504 845.019,601.93C843.907,603.355 842.543,604.719 840.927,606.022C839.311,607.324 837.39,608.394 835.163,609.232C832.936,610.07 830.354,610.489 827.418,610.489C822.31,610.489 817.965,609.3 814.382,606.924C810.799,604.547 808.063,601.267 806.175,597.084C804.286,592.9 803.342,588.101 803.342,582.687C803.342,578.617 803.957,574.886 805.187,571.496C806.417,568.106 808.155,565.167 810.403,562.681C812.65,560.194 815.308,558.273 818.378,556.918C821.447,555.563 824.811,554.885 828.47,554.885C830.765,554.885 832.972,555.284 835.09,556.081C837.207,556.877 839.081,557.981 840.711,559.392L845.246,555.607L846.504,555.607L846.504,570.719L845.06,570.719C844.876,568.644 844.334,566.749 843.433,565.034C842.533,563.318 841.359,561.83 839.909,560.569C838.46,559.308 836.828,558.334 835.012,557.646C833.197,556.957 831.282,556.613 829.268,556.613C826.263,556.613 823.709,557.345 821.605,558.81C819.501,560.275 817.808,562.251 816.526,564.737C815.245,567.223 814.308,570.017 813.717,573.119C813.125,576.22 812.829,579.41 812.829,582.687C812.829,585.96 813.043,589.164 813.472,592.296C813.9,595.429 814.652,598.259 815.727,600.786C816.803,603.314 818.288,605.324 820.182,606.819C822.077,608.313 824.489,609.06 827.418,609.06C829.454,609.06 831.169,608.728 832.562,608.065C833.955,607.403 835.084,606.597 835.948,605.647C836.812,604.697 837.485,603.764 837.968,602.846C838.451,601.928 838.791,601.226 838.986,600.74L838.986,589.97L831.373,589.97L831.373,588.407Z" style="fill-rule:nonzero;"/>
            </g>
            <g transform="matrix(1,0,0,1,-20.421055,14.641903)">
                <path d="M1481.889,390.696L1481.889,580.02" style="fill:none;stroke:black;stroke-width:2.08px;"/>
            </g>
            <g transform="matrix(0.488659,0,0,0.488659,1310.170062,267.6916)">
                <path d="M374.698,609.766L374.698,561.902L394.869,561.902C399.975,561.902 404.476,562.905 408.374,564.911C412.271,566.917 415.302,569.72 417.468,573.321C419.633,576.923 420.716,581.094 420.716,585.834C420.716,590.575 419.633,594.746 417.468,598.347C415.302,601.949 412.271,604.752 408.374,606.758C404.476,608.764 399.975,609.766 394.869,609.766L374.698,609.766ZM381.536,603.818L394.459,603.818C398.425,603.818 401.855,603.065 404.75,601.561C407.644,600.057 409.889,597.949 411.485,595.236C413.08,592.524 413.878,589.39 413.878,585.834C413.878,582.233 413.08,579.088 411.485,576.398C409.889,573.709 407.644,571.612 404.75,570.108C401.855,568.603 398.425,567.851 394.459,567.851L381.536,567.851L381.536,603.818Z" style="fill-rule:nonzero;"/>
                <path d="M437.4,582.552L462.015,582.552L462.015,588.364L437.4,588.364L437.4,582.552ZM438.015,603.818L465.913,603.818L465.913,609.766L431.177,609.766L431.177,561.902L464.956,561.902L464.956,567.851L438.015,567.851L438.015,603.818Z" style="fill-rule:nonzero;"/>
                <path d="M490.939,610.313C487.292,610.313 483.805,609.755 480.477,608.638C477.15,607.521 474.528,606.074 472.614,604.296L475.144,598.963C476.967,600.558 479.292,601.88 482.118,602.929C484.945,603.977 487.885,604.501 490.939,604.501C493.72,604.501 495.976,604.182 497.708,603.544C499.44,602.906 500.717,602.028 501.537,600.912C502.358,599.795 502.768,598.53 502.768,597.117C502.768,595.476 502.233,594.154 501.161,593.151C500.09,592.148 498.7,591.339 496.99,590.723C495.281,590.108 493.401,589.572 491.349,589.117C489.298,588.661 487.235,588.125 485.161,587.51C483.087,586.894 481.195,586.108 479.486,585.151C477.776,584.193 476.397,582.906 475.349,581.287C474.301,579.669 473.776,577.584 473.776,575.031C473.776,572.569 474.426,570.301 475.725,568.227C477.024,566.153 479.03,564.489 481.742,563.236C484.455,561.982 487.908,561.355 492.101,561.355C494.882,561.355 497.64,561.72 500.375,562.449C503.11,563.179 505.48,564.227 507.486,565.595L505.23,571.065C503.178,569.697 501.013,568.706 498.734,568.091C496.455,567.475 494.244,567.167 492.101,567.167C489.412,567.167 487.201,567.509 485.469,568.193C483.737,568.877 482.472,569.789 481.674,570.928C480.876,572.068 480.477,573.344 480.477,574.757C480.477,576.444 481.013,577.789 482.084,578.792C483.155,579.794 484.546,580.592 486.255,581.185C487.965,581.777 489.845,582.313 491.896,582.792C493.948,583.27 496.01,583.806 498.084,584.398C500.158,584.991 502.05,585.766 503.76,586.723C505.469,587.681 506.848,588.957 507.896,590.552C508.945,592.148 509.469,594.199 509.469,596.706C509.469,599.122 508.808,601.367 507.486,603.442C506.164,605.516 504.124,607.179 501.366,608.433C498.609,609.687 495.133,610.313 490.939,610.313Z" style="fill-rule:nonzero;"/>
                <rect x="519.452" y="561.902" width="6.838" height="47.864" style="fill-rule:nonzero;"/>
                <path d="M562.256,610.313C558.564,610.313 555.168,609.709 552.068,608.501C548.968,607.293 546.279,605.584 544,603.373C541.72,601.162 539.943,598.575 538.666,595.612C537.39,592.649 536.752,589.39 536.752,585.834C536.752,582.279 537.39,579.019 538.666,576.056C539.943,573.093 541.732,570.507 544.034,568.296C546.336,566.085 549.037,564.375 552.136,563.167C555.236,561.959 558.655,561.355 562.393,561.355C566.177,561.355 569.641,561.971 572.786,563.202C575.932,564.432 578.598,566.279 580.786,568.74L576.547,572.98C574.587,571.065 572.456,569.663 570.154,568.774C567.852,567.885 565.356,567.441 562.667,567.441C559.931,567.441 557.39,567.897 555.042,568.809C552.695,569.72 550.666,570.997 548.957,572.638C547.247,574.279 545.926,576.227 544.991,578.484C544.057,580.74 543.589,583.19 543.589,585.834C543.589,588.433 544.057,590.86 544.991,593.117C545.926,595.373 547.247,597.333 548.957,598.997C550.666,600.661 552.683,601.949 555.008,602.86C557.333,603.772 559.863,604.228 562.598,604.228C565.151,604.228 567.601,603.829 569.949,603.031C572.296,602.234 574.473,600.9 576.479,599.031L580.376,604.228C578.006,606.234 575.237,607.749 572.068,608.775C568.9,609.801 565.63,610.313 562.256,610.313ZM573.812,603.339L573.812,585.561L580.376,585.561L580.376,604.228L573.812,603.339Z" style="fill-rule:nonzero;"/>
                <path d="M593.436,609.766L593.436,561.902L599.043,561.902L630.702,601.219L627.762,601.219L627.762,561.902L634.599,561.902L634.599,609.766L628.992,609.766L597.334,570.45L600.274,570.45L600.274,609.766L593.436,609.766Z" style="fill-rule:nonzero;"/>
                <path d="M670.907,597.185C669.813,597.185 668.788,596.923 667.83,596.399C666.873,595.874 666.11,595.134 665.54,594.176C664.97,593.219 664.685,592.125 664.685,590.894C664.685,589.709 664.97,588.649 665.54,587.715C666.11,586.78 666.873,586.04 667.83,585.493C668.788,584.946 669.813,584.672 670.907,584.672C672.047,584.672 673.084,584.946 674.019,585.493C674.953,586.04 675.694,586.78 676.241,587.715C676.788,588.649 677.061,589.709 677.061,590.894C677.061,592.125 676.788,593.219 676.241,594.176C675.694,595.134 674.953,595.874 674.019,596.399C673.084,596.923 672.047,597.185 670.907,597.185Z" style="fill-rule:nonzero;"/>
                <path d="M707.216,609.766L707.216,561.902L727.387,561.902C732.492,561.902 736.994,562.905 740.891,564.911C744.789,566.917 747.82,569.72 749.986,573.321C752.151,576.923 753.233,581.094 753.233,585.834C753.233,590.575 752.151,594.746 749.986,598.347C747.82,601.949 744.789,604.752 740.891,606.758C736.994,608.764 732.492,609.766 727.387,609.766L707.216,609.766ZM714.053,603.818L726.977,603.818C730.943,603.818 734.373,603.065 737.267,601.561C740.162,600.057 742.407,597.949 744.003,595.236C745.598,592.524 746.396,589.39 746.396,585.834C746.396,582.233 745.598,579.088 744.003,576.398C742.407,573.709 740.162,571.612 737.267,570.108C734.373,568.603 730.943,567.851 726.977,567.851L714.053,567.851L714.053,603.818Z" style="fill-rule:nonzero;"/>
                <path d="M769.917,582.552L794.533,582.552L794.533,588.364L769.917,588.364L769.917,582.552ZM770.533,603.818L798.431,603.818L798.431,609.766L763.695,609.766L763.695,561.902L797.473,561.902L797.473,567.851L770.533,567.851L770.533,603.818Z" style="fill-rule:nonzero;"/>
                <path d="M819.012,609.766L819.012,567.851L802.602,567.851L802.602,561.902L842.192,561.902L842.192,567.851L825.782,567.851L825.782,609.766L819.012,609.766Z" style="fill-rule:nonzero;"/>
                <path d="M840.004,609.766L861.68,561.902L868.449,561.902L890.193,609.766L883.013,609.766L863.663,565.732L866.398,565.732L847.047,609.766L840.004,609.766ZM849.235,597.8L851.081,592.33L878.022,592.33L880.005,597.8L849.235,597.8Z" style="fill-rule:nonzero;"/>
                <rect x="897.304" y="561.902" width="6.838" height="47.864" style="fill-rule:nonzero;"/>
                <path d="M918.501,609.766L918.501,561.902L925.339,561.902L925.339,603.818L951.254,603.818L951.254,609.766L918.501,609.766Z" style="fill-rule:nonzero;"/>
                <path d="M981.066,597.185C979.972,597.185 978.946,596.923 977.989,596.399C977.032,595.874 976.268,595.134 975.698,594.176C975.129,593.219 974.844,592.125 974.844,590.894C974.844,589.709 975.129,588.649 975.698,587.715C976.268,586.78 977.032,586.04 977.989,585.493C978.946,584.946 979.972,584.672 981.066,584.672C982.206,584.672 983.243,584.946 984.177,585.493C985.112,586.04 985.852,586.78 986.399,587.715C986.946,588.649 987.22,589.709 987.22,590.894C987.22,592.125 986.946,593.219 986.399,594.176C985.852,595.134 985.112,595.874 984.177,596.399C983.243,596.923 982.206,597.185 981.066,597.185Z" style="fill-rule:nonzero;"/>
                <path d="M1023.597,582.552L1048.212,582.552L1048.212,588.364L1023.597,588.364L1023.597,582.552ZM1024.212,603.818L1052.11,603.818L1052.11,609.766L1017.374,609.766L1017.374,561.902L1051.153,561.902L1051.153,567.851L1024.212,567.851L1024.212,603.818Z" style="fill-rule:nonzero;"/>
                <path d="M1063.187,609.766L1063.187,561.902L1070.025,561.902L1070.025,603.818L1095.94,603.818L1095.94,609.766L1063.187,609.766Z" style="fill-rule:nonzero;"/>
                <path d="M1110.025,582.552L1134.641,582.552L1134.641,588.364L1110.025,588.364L1110.025,582.552ZM1110.641,603.818L1138.538,603.818L1138.538,609.766L1103.803,609.766L1103.803,561.902L1137.581,561.902L1137.581,567.851L1110.641,567.851L1110.641,603.818Z" style="fill-rule:nonzero;"/>
                <path d="M1171.154,610.313C1167.462,610.313 1164.066,609.709 1160.966,608.501C1157.866,607.293 1155.177,605.584 1152.898,603.373C1150.618,601.162 1148.841,598.575 1147.564,595.612C1146.288,592.649 1145.65,589.39 1145.65,585.834C1145.65,582.279 1146.288,579.019 1147.564,576.056C1148.841,573.093 1150.63,570.507 1152.932,568.296C1155.234,566.085 1157.935,564.375 1161.035,563.167C1164.134,561.959 1167.553,561.355 1171.291,561.355C1175.075,561.355 1178.539,561.971 1181.684,563.202C1184.83,564.432 1187.496,566.279 1189.685,568.74L1185.445,572.98C1183.485,571.065 1181.354,569.663 1179.052,568.774C1176.75,567.885 1174.254,567.441 1171.565,567.441C1168.829,567.441 1166.288,567.897 1163.941,568.809C1161.593,569.72 1159.564,570.997 1157.855,572.638C1156.146,574.279 1154.824,576.227 1153.889,578.484C1152.955,580.74 1152.487,583.19 1152.487,585.834C1152.487,588.433 1152.955,590.86 1153.889,593.117C1154.824,595.373 1156.146,597.333 1157.855,598.997C1159.564,600.661 1161.582,601.949 1163.906,602.86C1166.231,603.772 1168.761,604.228 1171.496,604.228C1174.049,604.228 1176.499,603.829 1178.847,603.031C1181.194,602.234 1183.371,600.9 1185.377,599.031L1189.274,604.228C1186.904,606.234 1184.135,607.749 1180.966,608.775C1177.798,609.801 1174.528,610.313 1171.154,610.313ZM1182.71,603.339L1182.71,585.561L1189.274,585.561L1189.274,604.228L1182.71,603.339Z" style="fill-rule:nonzero;"/>
                <path d="M1195.086,609.766L1216.762,561.902L1223.531,561.902L1245.275,609.766L1238.095,609.766L1218.745,565.732L1221.48,565.732L1202.129,609.766L1195.086,609.766ZM1204.317,597.8L1206.163,592.33L1233.104,592.33L1235.087,597.8L1204.317,597.8Z" style="fill-rule:nonzero;"/>
                <path d="M1252.386,609.766L1252.386,561.902L1257.993,561.902L1289.652,601.219L1286.712,601.219L1286.712,561.902L1293.549,561.902L1293.549,609.766L1287.942,609.766L1256.284,570.45L1259.224,570.45L1259.224,609.766L1252.386,609.766Z" style="fill-rule:nonzero;"/>
                <path d="M1329.311,610.313C1325.664,610.313 1322.302,609.709 1319.225,608.501C1316.148,607.293 1313.481,605.584 1311.225,603.373C1308.968,601.162 1307.202,598.575 1305.926,595.612C1304.649,592.649 1304.011,589.39 1304.011,585.834C1304.011,582.279 1304.649,579.019 1305.926,576.056C1307.202,573.093 1308.98,570.507 1311.259,568.296C1313.538,566.085 1316.216,564.375 1319.293,563.167C1322.37,561.959 1325.732,561.355 1329.379,561.355C1333.071,561.355 1336.479,561.982 1339.601,563.236C1342.724,564.489 1345.379,566.347 1347.567,568.809L1343.123,573.116C1341.299,571.202 1339.248,569.777 1336.969,568.843C1334.69,567.908 1332.251,567.441 1329.652,567.441C1326.963,567.441 1324.467,567.897 1322.165,568.809C1319.863,569.72 1317.869,570.997 1316.182,572.638C1314.496,574.279 1313.185,576.227 1312.25,578.484C1311.316,580.74 1310.849,583.19 1310.849,585.834C1310.849,588.478 1311.316,590.929 1312.25,593.185C1313.185,595.441 1314.496,597.39 1316.182,599.031C1317.869,600.672 1319.863,601.949 1322.165,602.86C1324.467,603.772 1326.963,604.228 1329.652,604.228C1332.251,604.228 1334.69,603.761 1336.969,602.826C1339.248,601.892 1341.299,600.444 1343.123,598.484L1347.567,602.792C1345.379,605.254 1342.724,607.122 1339.601,608.399C1336.479,609.675 1333.048,610.313 1329.311,610.313Z" style="fill-rule:nonzero;"/>
                <path d="M1363.567,582.552L1388.183,582.552L1388.183,588.364L1363.567,588.364L1363.567,582.552ZM1364.183,603.818L1392.081,603.818L1392.081,609.766L1357.345,609.766L1357.345,561.902L1391.123,561.902L1391.123,567.851L1364.183,567.851L1364.183,603.818Z" style="fill-rule:nonzero;"/>
            </g>
        </g>
    </g>
</svg>
