<?xml version="1.0" encoding="UTF-8" standalone="no"?>
<!DOCTYPE svg PUBLIC "-//W3C//DTD SVG 1.1//EN" "http://www.w3.org/Graphics/SVG/1.1/DTD/svg11.dtd">
<svg width="100%" height="100%" viewBox="280 280 440 440" version="1.1" xmlns="http://www.w3.org/2000/svg" xmlns:xlink="http://www.w3.org/1999/xlink" xml:space="preserve" xmlns:serif="http://www.serif.com/" style="fill-rule:evenodd;clip-rule:evenodd;stroke-linecap:round;stroke-linejoin:round;stroke-miterlimit:1.5;">
    <g transform="matrix(1,0,0,1,-2113.132292,0)">
        <g id="Artboard3" transform="matrix(1,0,0,1,13.132292,0)">
            <rect x="2100" y="0" width="1000" height="1000" style="fill:none;"/>
            <g transform="matrix(2.289817,0,0,2.289817,1614.15419,-837.901007)">
                <path d="M397.492,588.875C397.492,587.134 397.167,585.718 396.517,584.626C395.868,583.535 394.835,582.729 393.419,582.21C392.002,581.69 390.164,581.43 387.903,581.43L382.797,581.43L382.797,579.949L387.903,579.949C390.164,579.949 392.002,579.728 393.419,579.286C394.835,578.845 395.868,578.11 396.517,577.084C397.167,576.058 397.492,574.674 397.492,572.933L399.051,572.933L399.051,588.875L397.492,588.875ZM410.744,551.301L410.744,567.281L409.224,567.281C409.224,564.501 408.821,562.019 408.016,559.837C407.21,557.654 405.904,555.939 404.098,554.692C402.292,553.444 399.869,552.821 396.829,552.821L384.395,552.821L384.395,608.246L392.152,608.246L392.152,609.766L369.935,609.766L369.935,608.246L376.951,608.246L376.951,552.821L369.935,552.821L369.935,551.301L410.744,551.301Z" style="fill:black;stroke:black;stroke-width:2px;"/>
            </g>
            <g transform="matrix(2.289817,0,0,2.289817,1797.356957,-837.901007)">
                <path d="M398.31,610.546C393.035,610.546 388.41,609.247 384.434,606.648C380.459,604.05 377.366,600.49 375.158,595.968C372.949,591.447 371.845,586.302 371.845,580.534C371.845,574.739 372.949,569.587 375.158,565.079C377.366,560.571 380.459,557.017 384.434,554.419C388.41,551.82 393.035,550.521 398.31,550.521C400.909,550.521 403.384,550.969 405.735,551.866C408.087,552.762 410.146,554.016 411.913,555.627L415.967,551.301L417.331,551.301L417.331,567.281L415.772,567.281C415.642,564.241 414.778,561.604 413.18,559.369C411.582,557.134 409.542,555.406 407.061,554.185C404.579,552.964 401.922,552.353 399.09,552.353C395.712,552.353 392.847,553.146 390.495,554.731C388.144,556.316 386.26,558.453 384.844,561.142C383.427,563.832 382.395,566.853 381.745,570.205C381.095,573.557 380.771,577 380.771,580.534C380.771,584.067 381.095,587.51 381.745,590.862C382.395,594.215 383.427,597.235 384.844,599.925C386.26,602.614 388.144,604.751 390.495,606.336C392.847,607.921 395.712,608.714 399.09,608.714C401.662,608.714 403.994,608.331 406.086,607.564C408.178,606.798 409.99,605.732 411.523,604.368C413.057,603.004 414.252,601.419 415.109,599.613C415.967,597.807 416.448,595.865 416.552,593.786L418.111,593.786L418.111,609.766L416.746,609.766L413.044,605.167C411.277,606.83 409.126,608.142 406.593,609.104C404.059,610.065 401.298,610.546 398.31,610.546Z" style="fill:black;stroke:black;stroke-width:2px;"/>
            </g>
            <g transform="matrix(1.190006,0,0,1.190006,836.542163,-77.579271)">
                <path d="M1481.889,390.696L1481.889,580.02" style="fill:none;stroke:black;stroke-width:5px;"/>
            </g>
            <g transform="matrix(1.048273,0,0,1.048273,-54.172598,-91.744994)">
                <circle cx="2531.949" cy="564.495" r="201.015" style="fill:none;stroke:black;stroke-width:8px;"/>
            </g>
        </g>
    </g>
</svg>
